PathFileType	4	(X/Y/Z)	/home/abdul/Desktop/myosuite/custom_workspace/IK/output/S12_12_1.trc
DataRate	CameraRate	NumFrames	NumMarkers	Units	OrigDataRate	OrigDataStartFrame	OrigNumFrames
200.0	200.0	56	3	mm	200.0	1562	2082
Frame#	Time	V_Shoulder			V_Elbow			V_Wrist		
		X1	Y1	Z1	X2	Y2	Z2	X3	Y3	Z3

1562	7.805	-12.748883083546772	694.3662532337697	268.8652917222632	-79.39305748204572	591.2102057807003	18.290751659809366	-45.98745652116919	336.1721374503356	37.01304040608136
1563	7.81	-12.7258830731134	694.6335545965321	268.89513780824944	-79.55869707803842	591.5791208757962	18.22583976819639	-46.63586621613085	336.8376331992466	37.00735940681335
1564	7.815	-12.702367459843188	694.9089560762733	268.9246446723516	-79.73042424940986	591.9645524010408	18.157739814070986	-47.3090743690679	337.5340849084853	37.00271774174569
1565	7.82	-12.678368536684966	695.192542171888	268.95376120149325	-79.90826664136503	592.3667541481527	18.08645540893639	-48.007274210147756	338.26205400360686	36.9993246960305
1566	7.825	-12.653920237219857	695.4843921788782	268.9824367297335	-80.09224348755794	592.7859619820529	18.011998017405585	-48.73062701826505	339.0220718093994	36.99739943138117
1567	7.83	-12.629058082932579	695.7845799732172	269.0106211364077	-80.28236540880026	593.2223930240315	17.934387038161752	-49.479261222390406	339.8146378237734	36.99717067676457
1568	7.835	-12.603819127769173	696.0931737987529	269.0382649423243	-80.47863423358821	593.6762448696734	17.85364985809226	-50.25327157477968	340.6402180403222	36.998876358926175
1569	7.84	-12.578241900172408	696.4102360585916	269.06531940374725	-80.68104284125548	594.1476948439173	17.769821879128777	-51.05271839872485	341.4992433244783	37.00276317184444
1570	7.845	-12.552366342791572	696.7358231109174	269.0917366038977	-80.88957502847208	594.6368992955151	17.682946517434	-51.877626913257	342.3921078480487	37.0090860845074
1571	7.85	-12.526233750068073	697.0699850696875	269.11746954171707	-81.10420539971682	595.1439929330329	17.593075174685513	-52.727986636932755	343.319167586753	37.018107786712534
1572	7.855	-12.499886703902007	697.4127656106593	269.142472217637	-81.32489928225598	595.6690882044095	17.50026718131848	-53.6037508725499	344.2807388852197	37.0300980729091
1573	7.86	-12.473369007607959	697.7642017831914	269.1666997161112	-81.55161266606314	596.212274721956	17.404589711700904	-54.50483627434724	345.27709709371203	37.04533316442766
1574	7.865	-12.44672561837028	698.1243238282659	269.1901082846717	-81.78429216901449	596.7736187345416	17.306117671327467	-55.43112249894933	346.3084752806641	37.064094970774285
1575	7.87	-12.420002578409495	698.4931550031691	269.2126554092819	-82.02287502759255	597.3531626485699	17.204933556230017	-56.382451941020335	347.3750630249041	37.08667029100265
1576	7.875	-12.393246945071823	698.870711413274	269.2342998857664	-82.26728911322733	597.9509245992026	17.101127284913744	-57.35862955429381	348.47700529123057	37.11334995651671
1577	7.88	-12.366506720053513	699.2570018513488	269.2550018871117	-82.517452974301	598.5668980731432	16.994796003237894	-58.359422758348984	349.61440139278744	37.14442791699584
1578	7.885	-12.33983077797027	699.6520276448233	269.2747230264387	-82.77327590373679	599.2010515841392	16.886043862767586	-59.38456143121043	350.7873040434565	37.180200271472465
1579	7.89	-12.313268794480237	700.055782511423	269.2934264154649	-83.03465803198965	599.853328402211	16.774981773228596	-60.43373798755729	351.99571850325236	37.22096424692707
1580	7.895	-12.286871174165944	700.4682524235868	269.31107671828204	-83.30149044515245	600.5236463374575	16.661727129799395	-61.50660754204323	353.2396018194644	37.26701712709544
1581	7.9	-12.260688978377146	700.8894154820622	269.3276402002916	-83.57365532778965	601.2118975791424	16.54640351607361	-62.60278815694988	354.5188621660467	37.31865513450624
1582	7.905	-12.234773853232083	701.319241799069	269.3430847721529	-83.85102613001033	601.9179485906002	16.42914038362128	-63.721861173125575	355.83335828350596	37.376172269081124
1583	7.91	-12.209177957969546	701.7576933914061	269.35738002861257	-84.13346775819389	602.6416400603548	16.3100727091679	-64.86337162289945	357.18289902128635	37.439859106934584
1584	7.915	-12.183953893838508	702.2047240838647	269.3704972821004	-84.42083678868654	603.3827869096833	16.189340630496556	-66.02682872340932	358.5672429843921	37.51000156330245
1585	7.92	-12.159154633705462	702.6602794232989	269.38240959099056	-84.7129817036946	604.1411783567096	16.06708906225939	-67.21170644854212	359.9860982857312	37.58687962380759
1586	7.925	-12.13483345255276	703.1242966036838	269.39309178244343	-85.00974314851162	604.9165780369592	15.943467292960387	-68.41744417745699	361.4391224054015	37.67076604853535
1587	7.93	-12.111043859033531	703.596704402482	269.40252046975934	-85.31095420913184	605.7087241801556	15.818628564441562	-69.64344741744746	362.9259221578808	37.76192505363933
1588	7.935	-12.087839528240615	704.0774231286191	269.41067406419177	-85.61644070922239	606.5173298428949	15.692729635268767	-70.88908859869834	364.4460537678159	37.860610975428536
1589	7.94	-12.065274235838281	704.5663645823446	269.4175327811842	-85.9260215253511	607.3420831966891	15.565930329471373	-72.15370793830739	365.99902305484625	37.96706692209863
1590	7.945	-12.04340179369654	705.0634320272496	269.4230786410116	-86.23950891929654	608.182647870726	15.438393072141874	-73.43661437077259	367.58428572763114	38.08152341846217
1591	7.95	-12.022275987158167	705.5685201746752	269.427295463824	-86.5567088862029	609.0386633485564	15.310282413446798	-74.73708654199149	369.20124778698937	38.20419704920327
1592	7.955	-12.001950514058805	706.0815151807363	269.43016885910805	-86.87742151728283	609.909745417784	15.181764542639062	-76.05437386368213	370.84926603779604	38.33528910633176
1593	7.96	-11.982478925610417	706.6022946561592	269.43168620959733	-87.20144137571913	610.7954866717015	15.053006793694307	-77.38769762501505	372.5276487090229	38.474984246638186
1594	7.965	-11.963914569247821	707.1307276891063	269.4318366496812	-87.52855788437002	611.695457061689	14.924177144219263	-78.73625215814296	374.23565618104726	38.62344916505452
1595	7.97	-11.94631053352746	707.6666748811402	269.4306110383772	-87.85855572384361	612.6092044990683	14.795443709299407	-80.09920605422911	375.97250181910033	38.78083128990414
1596	7.975	-11.929719595156824	708.2099883964514	269.42800192695034	-88.19121523947395	613.5362555049853	14.666974231965627	-81.47570342650717	377.73735291147034	38.94725750607981
1597	7.98	-11.914194168221977	708.7605120244498	269.4240035212774	-88.52631285570635	614.4761159067789	14.538935571965823	-82.86486521685475	379.5293317108243	39.12283291221718
1598	7.985	-11.899786255669758	709.3180812557924	269.41861163907265	-88.86362149638089	615.4282715791844	14.411493194527207	-84.26579054232906	381.3475165767648	39.30763961793633
1599	7.99	-11.886547403090157	709.8825233718944	269.4118236621052	-89.20291100939212	616.3921892286139	14.284810660788592	-85.67755807809704	383.19094321749196	39.501735587201495
1600	7.995	-11.874528654833561	710.4536575479378	269.40363848355565	-89.54394859419953	617.3673172186557	14.159049121569653	-87.09922747319145	385.05860602820246	39.705153533801905
1601	8.0	-11.863780512486612	711.0312949693703	269.3940564506749	-89.88649923066656	618.353086434835	14.034366816125905	-88.52984079554074	386.9494595236178	39.91789987488339
1602	8.005	-11.854352895719714	711.6152389618486	269.38307930291984	-90.23032610771767	619.348911186594	13.910918577514309	-89.9684240027518	388.8624198618054	40.13995374836044
1603	8.01	-11.846295105508785	712.2052851345599	269.3707101057595	-90.57519105032084	620.3541901443583	13.78885534616516	-91.4139884351707	390.7963664562279	40.37126609991325
1604	8.015	-11.839655789723315	712.8012215368177	269.35695318035465	-90.92085494332845	621.3683073094782	13.668323693221565	-92.86553232780625	392.75014367273366	40.611758845122544
1605	8.02	-11.834482911062947	713.4028288277999	269.3418140293293	-91.26707815074239	622.3906330147581	13.549465355168419	-94.32204233777489	394.72256260798866	40.86132411211857
1606	8.025	-11.830823717314757	714.0098804592694	269.32529925886433	-91.61362092900848	623.4205249532195	13.432416781228863	-95.78249508400938	396.7124029456382	41.11982356991773
1607	8.03	-11.828724713894166	714.6221428710796	269.30741649735415	-91.96024383299138	624.4573292326747	13.317308694957672	-97.24585869607088	398.7184148862866	41.38708784739379
1608	8.035	-11.828231638623189	715.2393756992419	269.28817431088055	-92.3067081133336	625.5003814536394	13.204265671408606	-98.71109436900929	400.73932114718616	41.66291604757835
1609	8.04	-11.8293894386911	715.8613319962946	269.26758211576526	-92.65277610396055	626.5490078080469	13.093405731196176	-100.17715792133124	402.7738190273391	41.94707536170996
1610	8.045	-11.83224224973427	716.4877584636894	269.2456500884744	-92.99821159855844	627.6025261961968	12.984839952712203	-101.64300135325706	404.8205825335376	42.23930078715256
1611	8.05	-11.836833376964217	717.1183956958715	269.2223890731552	-93.34278021492045	628.6602473593166	12.87867210369411	-103.10757440257586	406.8782645626941	42.53929495298175
1612	8.055	-11.843205278265444	717.7529784357031	269.19781048709393	-93.68624974613199	629.7214760250922	12.77499829327519	-104.5698260955401	408.9454991356531	42.84672805669442
1613	8.06	-11.851399549177948	718.3912358408479	269.1719262243901	-94.02839049764444	630.7855120634904	12.67390664557764	-106.02870629037608	411.0209036775239	43.161237915132524
1614	8.065	-11.861456909672873	719.0328917607052	269.1447485581494	-94.36897560936968	631.8516516501782	12.575476995836999	-107.4831672111248	413.10308133942766	43.482430132326904
1615	8.07	-11.873417192624089	719.6776650234477	269.1162900415008	-94.7077813620146	632.9191884348279	12.479780609972222	-108.93216496966389	415.1906233564254	43.80987838656317
1616	8.075	-11.887319333873235	720.3252697326926	269.0865634077492	-95.04458746696369	633.9874147115947	12.386879928438786	-110.37466107389801	417.28211143626766	44.14312483854948
1617	8.08	-11.90320136378115	720.9754155733048	269.05558146997794	-95.37917733911067	635.0556225890487	12.296828335123791	-111.80962392023798	419.3761201735007	44.48168066212645
